<svg version="1.1" id="Layer_1" xmlns="http://www.w3.org/2000/svg" xmlns:xlink="http://www.w3.org/1999/xlink" x="0px" y="0px"
	 width="100%" viewBox="0 0 960 1024" enable-background="new 0 0 960 1024" xml:space="preserve">
<path fill="#000000" opacity="1.000000" stroke="none" 
	d="
M646.865845,567.772583 
	C643.796692,575.195984 641.002747,582.326965 637.957092,589.348755 
	C635.568665,594.855225 640.625793,594.952759 643.355469,596.772278 
	C639.826965,599.407410 636.591553,598.490662 633.415283,593.636047 
	C631.165100,590.196899 629.434814,586.417725 627.480530,582.805176 
	C622.459961,585.215027 612.553955,605.788513 613.561340,611.621643 
	C610.814026,612.687866 609.720886,610.606750 608.481018,608.933533 
	C606.738220,606.581848 605.097534,607.043091 603.832397,609.242065 
	C601.094849,614.000244 598.327454,618.758057 595.930481,623.690063 
	C594.039673,627.580566 596.538940,633.189819 600.470032,634.775879 
	C605.103333,636.645325 609.773560,638.425598 614.378784,640.361267 
	C620.180542,642.799988 624.998352,645.958435 627.171326,652.611389 
	C632.114441,667.745667 642.015930,680.037537 651.273865,692.651917 
	C652.150696,693.846619 653.022705,695.346558 654.609436,695.504150 
	C663.233826,696.360657 668.959778,702.395325 674.711975,707.622437 
	C680.700073,713.063843 687.650513,711.539185 694.296753,712.725342 
	C702.758728,714.235474 710.172058,716.954834 717.665039,722.391907 
	C734.424500,734.552734 751.488586,746.762329 771.434326,753.756592 
	C779.276001,756.506348 786.953674,759.722900 794.126038,764.000305 
	C795.122498,764.594543 796.212402,765.161316 796.974365,765.999512 
	C805.260071,775.113953 814.590820,783.302673 821.651855,793.499695 
	C824.587463,797.739075 824.671143,802.932007 825.819946,807.749207 
	C829.364624,822.613403 832.695923,837.478516 837.356506,852.111755 
	C842.810974,869.237366 844.049805,887.319031 845.232788,905.254822 
	C845.668640,911.862671 848.401428,918.147034 848.207764,925.397400 
	C845.546082,924.182434 845.276917,922.017822 844.890747,920.071533 
	C843.531982,913.222900 842.602539,906.272827 840.916443,899.509277 
	C838.220886,888.696289 839.131042,877.350891 835.745056,866.665405 
	C835.109680,864.660217 834.775818,862.559448 834.294434,860.466309 
	C832.573608,861.009766 834.059631,862.634094 832.769226,863.016846 
	C829.049194,859.739075 833.029175,855.051941 830.973328,851.805237 
	C824.051941,840.874695 822.968689,827.443298 815.616394,816.746155 
	C811.324951,810.502380 808.747681,803.430237 806.165955,796.406555 
	C804.995605,793.222595 803.215698,791.733826 799.921509,792.016235 
	C789.991699,792.867126 779.872314,793.053467 771.735352,800.164612 
	C771.153503,800.673096 770.229065,801.091919 769.481873,801.064270 
	C755.580139,800.551208 745.956421,808.747375 737.926270,818.204651 
	C725.342407,833.024963 713.936951,848.843689 701.961914,864.184570 
	C699.215759,867.702576 694.937988,870.780457 695.544373,875.598938 
	C697.005249,887.207642 691.912537,898.257141 693.207764,909.780518 
	C693.388184,911.385742 693.232727,913.028625 694.083130,915.074890 
	C711.481384,888.774902 731.517395,864.619934 748.777100,838.406189 
	C749.545410,838.847473 750.313721,839.288696 751.082092,839.729980 
	C735.367188,866.922058 723.950439,896.061951 712.321228,925.105469 
	C711.558411,924.796570 710.795593,924.487610 710.032715,924.178650 
	C714.981506,906.707458 722.925354,890.266968 729.542725,871.784912 
	C716.279846,888.690491 704.966919,905.084351 694.632263,922.161621 
	C693.266418,924.418579 693.170959,926.876282 692.973206,929.371399 
	C692.753174,932.148987 693.278564,935.053955 691.817871,937.552368 
	C689.993286,938.575684 689.633301,936.283203 688.221558,936.219299 
	C686.763916,936.852539 686.782593,938.668030 685.749451,939.707275 
	C685.133057,940.327393 684.458374,940.870056 683.577698,940.600342 
	C682.716980,940.336731 682.295532,939.626831 682.319519,938.678528 
	C682.579346,928.415955 681.589355,918.125427 683.014526,907.891418 
	C683.075989,907.450073 683.440186,907.050903 684.330078,905.381287 
	C687.656860,910.940918 683.560242,916.525269 686.380432,921.740234 
	C690.147156,909.194702 687.225830,896.558228 691.612854,884.204468 
	C687.814697,884.701538 687.284729,888.365112 683.862854,887.900574 
	C685.450928,885.707031 686.972900,883.577087 688.524353,881.468994 
	C690.436340,878.870728 691.835693,876.112793 691.862061,872.764587 
	C691.877930,870.741028 692.335571,868.736145 693.827637,867.244934 
	C699.526489,861.549377 703.156616,854.291199 708.313660,848.173279 
	C710.561340,845.506897 713.256592,842.766296 711.702942,838.468140 
	C711.199829,837.076233 712.794617,835.819397 713.707458,834.627502 
	C717.983704,829.043884 723.113647,824.310791 728.271301,819.571838 
	C730.705200,817.335571 732.683533,814.593750 734.803101,812.027100 
	C739.708740,806.086853 742.526550,798.147888 751.944458,796.066956 
	C743.131775,788.241333 734.212708,783.448425 724.209351,780.346436 
	C709.874268,775.901306 695.955444,770.376770 683.088196,762.515381 
	C674.549622,757.298706 668.835449,749.540894 664.519348,740.756836 
	C660.554260,732.687195 662.332825,725.116760 669.151184,719.142761 
	C670.754944,717.737610 672.506104,716.500854 674.632263,714.840820 
	C671.202881,712.875244 667.882812,711.423157 665.115662,709.262939 
	C662.196106,706.983704 658.976807,705.404602 655.579041,703.282410 
	C649.283142,717.674561 639.995056,729.817810 630.840698,741.927307 
	C615.587036,762.105347 599.497864,781.639221 581.951843,799.917053 
	C579.764221,802.195923 577.919922,804.806030 575.716553,807.067749 
	C569.105591,813.853638 564.142151,822.571045 553.530029,825.441956 
	C549.652954,821.010803 547.161133,815.015320 543.631531,809.717773 
	C539.850891,804.043518 536.298523,798.214539 532.430481,792.601929 
	C529.747375,788.708801 527.822815,788.683105 525.142883,792.303650 
	C517.329651,802.859314 509.640472,813.512451 499.138336,821.682922 
	C497.197601,823.192810 497.060791,825.279785 497.049835,827.528625 
	C496.988129,840.200989 498.561981,852.769409 499.534363,865.367615 
	C500.839752,882.279724 502.678772,899.150574 504.293701,916.038757 
	C504.705353,920.343506 504.954956,924.673767 505.599823,928.943909 
	C506.550720,935.240601 500.820984,938.289734 498.801666,943.154846 
	C498.053436,944.957642 495.120300,943.660889 493.600922,942.226379 
	C490.981506,939.753418 488.965027,939.883850 487.505768,943.331665 
	C486.763000,945.086670 485.395813,946.353455 483.633911,945.541626 
	C478.567963,943.207397 472.837708,943.890198 467.907898,941.708923 
	C466.284149,942.124268 465.947510,943.615112 465.070312,944.567444 
	C461.576263,948.360596 459.199219,948.001282 456.934753,943.245056 
	C454.719452,938.592163 448.790802,936.741150 444.465637,939.203125 
	C439.615997,941.963623 437.216461,937.055603 434.240479,935.209290 
	C430.483032,932.878235 428.082092,928.764038 422.417114,930.593628 
	C420.070312,931.351562 419.304138,928.745239 420.361389,926.450317 
	C427.985016,909.902771 432.127655,892.145630 438.167786,875.045837 
	C443.650482,859.523987 447.660889,843.427002 453.994568,828.283752 
	C457.207214,820.602600 456.531311,814.196838 454.618591,806.970520 
	C452.404907,798.607178 450.667206,790.118774 448.553802,781.727234 
	C448.065613,779.788879 448.450989,776.872925 445.645905,776.477173 
	C443.126312,776.121704 442.118652,778.670105 440.771729,780.261353 
	C435.613220,786.355530 431.226959,793.115112 425.120697,798.389282 
	C423.815613,799.516602 422.840302,801.766541 420.641571,800.611511 
	C418.781433,799.634338 419.625366,797.634033 419.772949,796.053162 
	C421.366241,778.991150 424.659607,762.208008 428.244598,745.480835 
	C429.846771,738.005066 431.807312,730.606079 433.412659,723.130920 
	C433.919830,720.769348 434.632263,718.216248 432.883911,715.710938 
	C429.150543,716.189392 426.741669,718.712463 424.644745,721.453613 
	C417.801788,730.399231 408.585419,736.083008 398.988800,741.661621 
	C383.559784,750.630859 365.973145,753.614929 349.882782,760.631287 
	C343.329651,763.488770 336.607941,765.916992 330.368286,769.530273 
	C326.234375,771.924072 324.148315,775.343628 323.152161,779.741272 
	C320.715668,790.497559 320.113647,801.493774 319.216431,812.422424 
	C318.263611,824.028198 317.960510,835.690857 318.180756,847.350830 
	C318.262329,851.671204 317.860718,855.822388 316.438965,860.048157 
	C314.150269,866.850952 313.885040,874.102356 313.490234,881.234253 
	C312.829315,893.174255 309.444946,904.782349 309.302979,916.777466 
	C309.298737,917.135193 308.718292,917.486084 307.310303,919.084961 
	C304.539246,895.063049 301.903015,872.210022 299.266815,849.356995 
	C299.757507,849.263550 300.248230,849.170105 300.738953,849.076660 
	C303.742645,853.423462 301.223389,859.215759 303.871613,864.022705 
	C306.958466,859.499329 306.754883,854.349915 307.408844,849.598022 
	C310.561340,826.690918 315.761108,804.148438 319.276642,781.311218 
	C319.632629,778.998718 320.484619,776.670776 317.989685,774.983704 
	C315.801270,773.503967 314.356567,775.494873 312.546417,776.057434 
	C302.245300,779.259216 301.565216,789.250366 298.170898,796.973572 
	C293.360199,807.919678 289.236084,819.229431 285.694977,830.655396 
	C281.616791,843.814331 272.896973,853.843506 264.663391,864.222839 
	C262.305450,867.195251 260.611877,869.796326 261.655823,873.601624 
	C261.830414,874.237976 261.724823,874.964966 261.957611,875.569641 
	C266.155701,886.474365 261.655060,895.645752 256.190552,904.618835 
	C255.272827,906.125854 254.505936,908.367920 252.135040,907.147949 
	C250.074188,906.087463 251.215286,904.290588 251.801163,902.759888 
	C252.098465,901.983154 252.250610,901.108704 252.706635,900.441223 
	C258.853973,891.442810 259.951202,881.813904 256.521210,871.544128 
	C255.718857,869.141724 256.330200,866.740112 257.997375,864.992615 
	C271.512268,850.826050 277.690155,832.952820 283.808594,814.957092 
	C287.124664,805.203674 291.379425,795.773376 294.903809,786.085632 
	C297.215515,779.731384 301.457428,775.422241 307.363464,772.541992 
	C313.329285,769.632751 319.005035,766.712708 316.584198,758.242920 
	C316.174927,756.810913 318.259369,755.519226 319.434937,754.367126 
	C325.878052,748.052734 333.701721,744.093750 342.109772,741.134521 
	C355.777679,736.324036 369.314453,731.194824 382.503754,725.157593 
	C387.421234,722.906677 391.838745,720.175232 395.449432,716.079529 
	C400.341400,710.530518 405.905853,706.663269 414.022003,707.238159 
	C417.489868,707.483765 421.321259,706.864075 424.797699,705.460449 
	C425.650055,705.116333 426.738708,705.179565 427.689819,705.294556 
	C429.742615,705.542542 430.832184,709.281494 433.217651,707.498474 
	C437.289337,704.455078 442.832062,704.095947 446.032135,699.293701 
	C451.023956,691.802734 455.828644,684.207581 460.257538,676.389343 
	C462.263977,672.847473 464.874359,670.457825 468.595917,668.960754 
	C470.741577,668.097656 472.715271,666.791321 474.729462,665.620911 
	C477.204681,664.182495 478.177673,662.106323 477.234100,659.286438 
	C477.075958,658.813904 476.941040,658.323792 476.876526,657.831238 
	C475.901276,650.383789 472.692230,646.463562 464.189453,645.831787 
	C450.904266,644.844727 439.188812,637.979370 427.218964,632.651794 
	C405.012573,622.768066 382.878296,612.750122 362.170258,599.779541 
	C341.445801,586.798645 327.321075,569.178772 320.798004,545.553528 
	C320.221985,543.467285 319.469910,541.429138 318.911133,539.338806 
	C318.488098,537.756409 317.744934,536.701904 316.017517,536.328369 
	C298.650909,532.573853 287.861359,520.415466 279.118835,506.307312 
	C271.243225,493.598083 266.048553,479.723083 265.713348,464.463867 
	C265.668518,462.423340 264.891022,460.982117 263.309540,459.816040 
	C248.690277,449.036316 240.489227,434.115601 235.590363,417.020508 
	C235.121918,415.385834 235.327179,413.312286 232.735291,411.713104 
	C229.750244,428.000488 229.262665,443.491058 237.192245,458.487091 
	C235.092255,459.710510 233.614395,458.534058 232.592957,457.046143 
	C224.716324,445.572418 216.083145,434.578766 214.444870,419.903259 
	C212.468628,402.200317 213.369690,384.744873 216.886368,367.334747 
	C218.143631,361.110291 219.941559,355.054810 221.995972,349.080505 
	C223.390762,345.024506 221.867828,343.927521 218.091202,344.161255 
	C209.148911,344.714722 200.544632,343.613617 192.398941,339.453491 
	C183.794418,335.058990 177.194626,328.660950 173.219299,319.983734 
	C171.149734,315.466400 172.918503,310.988190 175.883575,306.916748 
	C185.364426,293.898468 197.377502,283.847443 211.228134,275.814880 
	C217.280640,272.304749 223.271317,268.705658 229.670761,265.831116 
	C231.435272,265.038544 233.372620,264.244354 234.303314,261.705109 
	C228.041412,255.663116 223.551758,248.270752 219.243561,240.505554 
	C214.534012,232.016953 215.836823,224.335236 218.792419,216.272507 
	C224.582764,200.476776 235.163651,187.761139 246.001724,175.342926 
	C268.126251,149.992813 291.324738,125.628731 315.300293,102.029556 
	C327.957977,89.570610 343.732300,82.941231 360.823090,78.578194 
	C382.466980,73.052826 404.549286,70.090279 426.468140,66.175713 
	C431.254700,65.320869 436.256866,65.721077 441.152130,65.419518 
	C466.087952,63.883434 491.019745,62.185894 515.767456,67.514877 
	C528.820251,70.325577 541.019409,75.294502 553.204468,80.724701 
	C565.351562,86.138000 577.510071,91.576530 589.764343,96.769760 
	C615.399231,107.633591 639.659546,121.201317 664.112732,134.399261 
	C671.117920,138.180115 678.325562,141.585953 685.770142,144.559387 
	C662.051880,129.498245 637.707520,115.557983 612.588623,102.913918 
	C619.557617,104.441948 625.638245,107.952942 631.906616,111.051552 
	C658.351440,124.123894 684.158691,138.352112 708.799194,154.571716 
	C720.877869,162.522507 731.860107,171.867737 742.434509,181.876328 
	C749.231262,188.309387 755.632568,195.219009 759.372131,203.123611 
	C767.344727,219.975739 778.464966,235.647858 781.085754,254.805283 
	C781.727783,259.497986 780.370728,263.169708 777.308655,266.668060 
	C769.618164,275.454285 761.476501,283.791779 752.908203,291.705444 
	C750.053162,294.342407 748.132324,297.165924 748.284058,301.195038 
	C748.333496,302.507263 748.395264,304.114502 747.734253,305.111328 
	C742.365540,313.207916 746.493042,320.359192 749.956970,327.430054 
	C755.425598,338.592957 762.281616,348.800232 772.345703,356.418579 
	C775.702881,358.959900 778.894714,362.276398 783.869751,361.066071 
	C784.700684,360.863922 785.512573,361.345398 785.843933,362.240601 
	C786.356873,363.626343 785.446777,364.345276 784.509949,365.125458 
	C777.637756,370.848877 770.017639,372.947113 761.227844,370.378662 
	C753.337280,368.073059 752.816772,368.643982 753.030579,377.085022 
	C753.572266,398.474945 751.753784,419.423218 740.385742,438.327820 
	C737.030579,443.907227 734.297180,449.679504 732.049072,455.797180 
	C729.751709,462.048920 726.451050,467.881165 721.961060,472.933594 
	C711.611938,484.579071 708.840027,499.171295 706.278931,513.788513 
	C705.360962,519.027771 705.064026,524.364624 705.167542,529.718994 
	C705.350952,539.206726 705.399109,539.514893 711.204773,545.587585 
	C707.542725,547.228699 707.177551,546.969116 701.951843,541.165100 
	C699.400513,538.331360 696.395264,535.940186 694.521118,532.480774 
	C692.635620,529.000305 692.164734,524.848022 689.560547,521.764893 
	C686.802429,521.698303 686.115906,523.874084 685.238770,525.517151 
	C682.180969,531.244995 679.158142,537.000854 676.397095,542.875366 
	C673.155396,549.772583 670.610657,557.027954 666.977417,563.699768 
	C664.574829,568.111816 665.414612,570.791077 669.124878,573.359924 
	C669.783203,573.815674 670.592163,574.233215 670.437744,575.273376 
	C666.392212,576.143311 665.149109,575.157043 660.483215,568.676453 
	C657.830200,564.991577 657.071655,560.379211 654.011841,556.231018 
	C649.966064,559.097290 648.914307,563.547363 646.865845,567.772583 
M719.691772,288.047546 
	C721.780640,288.774170 723.438171,290.158997 725.074463,291.575806 
	C728.715454,294.728485 732.321655,297.922852 736.016174,301.011505 
	C737.240662,302.035187 738.608398,303.395142 740.274780,301.493256 
	C743.593445,297.705627 742.730713,284.437103 738.406860,281.434235 
	C733.444031,277.987610 729.610413,273.407501 725.036682,269.606201 
	C716.447693,262.467743 707.175659,256.323608 697.426697,250.910629 
	C695.765991,249.988541 692.901306,248.061050 692.444336,251.772751 
	C691.831848,256.747925 689.970032,260.944183 686.514954,264.702271 
	C688.769287,267.062286 691.304688,268.271851 693.693726,269.724579 
	C702.615173,275.149445 711.576050,280.533203 718.320557,287.870087 
	C714.420044,285.776642 710.519531,283.683228 706.619019,281.589783 
	C709.398682,284.396332 712.629517,286.363739 715.842957,288.359222 
	C717.017456,289.088593 718.161560,289.978180 719.691772,288.047546 
M369.149628,597.341370 
	C393.325256,611.253784 419.169525,621.617554 444.718628,632.569580 
	C452.006500,635.693665 459.783783,638.060852 467.843048,638.478882 
	C482.329865,639.230408 495.337952,633.829346 507.698212,627.333801 
	C538.234436,611.286621 568.060852,594.061279 594.144775,571.098389 
	C609.089844,557.941467 621.599609,543.096558 628.944885,524.276489 
	C631.662415,517.313843 634.538025,510.361053 638.819702,504.123413 
	C642.232056,499.152222 644.478699,498.672119 650.047913,501.036835 
	C660.365662,505.417847 671.383545,506.266724 680.912354,500.558258 
	C705.151367,486.037231 726.184143,469.044952 729.638428,437.563416 
	C731.724792,418.549194 728.373230,402.507385 713.913513,389.656555 
	C706.913086,383.435120 697.496155,381.106750 689.274170,383.393005 
	C680.581360,385.810181 672.893982,392.231689 669.027832,401.300903 
	C664.199097,412.628296 659.954895,424.204346 655.161865,435.547729 
	C648.667847,450.916656 637.829834,462.925049 625.053589,473.339996 
	C624.358398,473.906677 623.525757,474.158752 622.752014,473.657501 
	C621.506958,472.850861 621.846252,471.702179 622.249329,470.548279 
	C623.619690,466.625214 625.085205,462.728455 626.259521,458.746490 
	C626.929321,456.475220 627.816895,454.002747 626.046997,451.785431 
	C623.838257,452.047272 623.190002,453.722809 622.144531,454.972198 
	C619.046692,458.674255 615.958008,462.386200 612.765686,466.006104 
	C611.236877,467.739685 609.501892,469.366821 606.552490,467.225403 
	C612.732117,457.970154 614.014709,447.695953 613.765503,437.133698 
	C613.470459,424.629333 611.567261,412.337799 609.278687,400.035431 
	C607.979858,393.053619 604.798279,389.355072 598.166382,387.134460 
	C582.660461,381.942505 568.914124,373.560577 556.845276,362.471710 
	C545.315796,351.878510 545.402405,352.048523 532.131104,361.185699 
	C517.611389,371.182281 503.574158,381.923615 487.996490,390.329071 
	C486.644653,391.058502 484.970795,391.776550 485.147980,394.554932 
	C503.170959,387.905304 521.473816,386.224182 540.179443,389.221283 
	C535.883362,391.926514 531.029175,391.439941 526.438477,392.080963 
	C515.238831,393.644745 503.950745,394.501923 493.005310,397.691193 
	C486.913177,399.466278 484.026917,403.758087 482.339539,409.464722 
	C488.379700,405.669464 493.868134,401.205261 501.123779,399.693604 
	C505.047577,398.876129 509.004730,398.487000 512.926147,397.847198 
	C531.384399,394.835632 549.963562,394.170013 568.481445,396.980408 
	C577.644958,398.371155 586.915527,400.014130 594.795532,405.646118 
	C597.128967,407.313843 597.952881,408.751129 596.560669,411.816956 
	C594.134033,417.160400 590.320129,421.205963 586.172974,425.064850 
	C584.833557,426.311096 583.200928,427.224640 581.108154,425.764893 
	C581.244873,424.497833 581.436340,423.202087 581.512024,421.899628 
	C581.602966,420.334473 580.628906,419.496124 579.313904,418.909424 
	C577.893372,418.275543 576.381348,418.453217 575.806702,419.774780 
	C573.818726,424.346619 572.096313,429.033936 570.121094,434.063782 
	C574.066711,434.174469 575.472961,431.643280 577.675781,430.624725 
	C579.440796,429.808624 580.997375,430.023499 582.216003,431.382568 
	C583.626770,432.955902 582.374451,434.112152 581.247253,435.161499 
	C576.687622,439.406281 571.774841,443.177643 565.446777,444.174805 
	C545.836060,447.265076 526.092896,448.583740 506.240753,448.071686 
	C504.342102,448.022736 502.139160,448.253784 501.238831,445.841919 
	C501.864014,443.870728 503.589874,444.159302 504.970367,443.897430 
	C509.068573,443.120087 513.201904,442.731415 517.385132,442.753235 
	C519.159424,442.762512 521.358948,443.045959 522.247559,441.036377 
	C523.070740,439.174774 521.233765,438.024445 520.226318,436.806000 
	C516.560608,432.372589 513.990723,427.398224 512.325806,421.903778 
	C509.419769,412.313507 507.178406,411.395905 498.050812,415.798492 
	C496.202057,416.690155 494.813446,418.093262 493.326416,419.431335 
	C489.987122,422.436096 486.593201,425.381683 483.172028,428.293152 
	C482.006744,429.284851 480.709778,430.024139 479.091431,429.045227 
	C477.541565,428.107635 477.578339,426.879456 477.730499,425.206787 
	C478.021515,422.007172 477.815002,418.762360 477.815002,415.770782 
	C476.211151,414.522919 474.401428,416.410950 473.446808,414.848633 
	C472.323395,412.483856 474.219788,410.526093 473.943390,408.460541 
	C473.200226,406.967712 471.108063,408.785522 470.509552,406.638855 
	C472.731171,401.509186 477.924652,398.987854 483.007080,394.759216 
	C480.975983,395.092682 480.153717,395.124176 479.407562,395.378784 
	C478.634491,395.642548 477.949982,396.154175 477.201477,396.503235 
	C470.033356,399.846161 462.719971,402.686401 454.754303,399.576874 
	C451.153931,398.171448 448.672577,399.054749 445.760559,401.384949 
	C442.987091,403.604309 440.767853,407.177704 436.242004,407.241882 
	C435.939178,403.490509 438.867645,401.748962 440.182281,399.218811 
	C441.626312,396.439545 442.697083,393.606964 440.721771,389.016479 
	C426.947632,405.136932 413.109894,419.997986 396.619934,431.931915 
	C393.486877,430.818817 393.758026,426.519684 389.859100,425.484192 
	C390.064789,427.814972 386.793030,428.663574 388.266235,431.331207 
	C392.314880,438.662354 390.438782,445.859283 387.056213,452.570251 
	C385.062134,456.526520 382.933258,460.752716 377.770020,462.329315 
	C365.673309,466.023041 353.618988,469.832184 341.113190,471.903137 
	C333.008087,473.245300 325.525879,471.711761 319.092529,466.323975 
	C317.826813,465.264008 316.257843,463.995026 317.302338,462.148285 
	C318.448029,460.122589 320.134155,461.177368 321.629669,461.982910 
	C323.389587,462.930847 325.117554,463.954803 326.937653,464.771423 
	C335.720490,468.712067 343.924408,466.116150 352.412811,463.023163 
	C351.868805,461.972504 351.758972,461.368408 351.404327,461.132782 
	C342.878845,455.468475 338.924835,447.220581 337.467163,437.354401 
	C337.024719,434.359833 334.934235,432.739105 331.568420,433.951385 
	C327.834259,435.296387 323.983276,436.351135 320.333984,437.889893 
	C314.304657,440.432220 312.691620,444.997406 315.422821,450.916016 
	C315.771820,451.672394 316.156891,452.413269 316.477875,453.181152 
	C316.926147,454.253662 317.495331,455.383026 316.542267,456.442261 
	C315.590790,457.499786 314.453308,456.950653 313.297607,456.743652 
	C306.159668,455.465027 303.006195,449.761932 300.002411,444.264252 
	C298.942322,442.323975 299.106567,439.365234 300.870331,437.149780 
	C304.326477,432.808472 308.034943,428.642273 313.374908,426.714783 
	C328.845673,421.130524 344.674774,417.800262 361.303864,419.099945 
	C366.997589,419.544922 372.452240,421.002594 379.028473,422.895233 
	C376.526245,418.346680 373.830505,416.615967 370.100739,416.169189 
	C359.146088,414.856934 348.202362,414.528198 337.236786,416.059692 
	C335.865265,416.251282 334.255890,416.702271 332.639221,414.484680 
	C343.717224,407.396820 356.037018,411.732330 367.606049,410.002411 
	C358.116455,405.385925 348.961761,400.402069 339.723602,395.577942 
	C337.951599,394.652618 336.093689,395.285370 334.535095,396.406921 
	C328.607025,400.672577 321.873779,403.715668 316.262268,408.452911 
	C315.316040,409.251770 314.374542,409.953857 313.157715,409.186096 
	C311.938232,408.416534 312.302063,407.222900 312.434784,406.041199 
	C312.917053,401.747345 313.324829,397.444763 313.725159,393.142151 
	C313.997162,390.218842 314.125793,387.261047 310.446716,386.293274 
	C307.082977,385.408417 305.163635,387.253662 303.734436,390.063324 
	C300.034790,397.336578 296.445038,404.675415 292.460297,411.791443 
	C287.414154,420.803009 287.867279,429.288147 291.839417,438.871185 
	C304.631836,469.733643 318.694519,500.200195 325.047272,533.350769 
	C330.314819,560.838623 344.666504,582.160400 369.149628,597.341370 
M550.064514,84.528709 
	C525.186462,72.228073 498.604004,67.731308 471.182831,68.470535 
	C449.412781,69.057411 427.566010,70.401009 406.204315,74.837860 
	C388.833557,78.445793 371.020325,79.797653 354.107208,85.982857 
	C339.738037,91.237717 327.119781,98.447327 316.883636,110.003288 
	C307.630066,120.449997 297.815552,130.403137 288.165344,140.494476 
	C270.105347,159.380112 251.170593,177.463974 235.291397,198.341309 
	C230.232956,204.991959 225.784317,212.003448 223.756622,220.218719 
	C222.479233,225.394135 223.411880,230.299927 225.719467,235.199585 
	C228.515213,241.135681 233.339905,245.930725 234.249817,253.088150 
	C234.610077,255.922134 238.282898,260.148163 242.786865,259.277252 
	C246.962143,258.469940 251.355591,257.853485 252.034683,251.486618 
	C252.976578,242.655640 257.601929,235.403839 264.320404,229.301819 
	C272.970245,221.445618 283.475494,216.746063 293.351318,210.938904 
	C328.064911,190.526733 365.657379,179.897110 405.729156,177.505951 
	C421.341461,176.574310 436.935059,175.309464 452.552612,174.490097 
	C468.178894,173.670273 483.888397,172.784409 499.441132,174.651123 
	C514.770447,176.490997 529.904785,179.852234 545.125366,182.497375 
	C583.249756,189.122849 619.913635,200.032135 654.854309,216.731018 
	C675.317627,226.510895 695.091125,237.530655 714.170105,249.744736 
	C727.271179,258.131897 740.985046,266.044220 747.187012,281.761353 
	C748.524902,285.151794 751.305664,285.044037 754.000916,282.466461 
	C761.267334,275.517578 767.731384,267.952759 772.625427,259.120361 
	C774.126465,256.411346 774.862244,253.712036 773.799866,250.557220 
	C769.230835,236.989075 763.996277,223.766205 755.147522,212.288971 
	C753.139343,209.684311 750.117737,207.132843 750.452698,203.827194 
	C750.814392,200.258118 749.473755,197.691483 747.930359,194.980103 
	C743.942383,187.974121 736.982056,183.889023 731.361084,178.509247 
	C723.407715,170.897125 714.354919,164.818436 702.789062,161.105179 
	C708.267395,166.660690 714.997009,169.217087 719.028931,175.165405 
	C697.952881,159.186890 672.879333,151.659012 648.814148,142.025574 
	C649.034729,141.455948 649.255310,140.886322 649.475830,140.316711 
	C661.992554,144.822556 674.509277,149.328415 687.026001,153.834259 
	C643.004089,127.858505 597.775635,104.561943 550.064514,84.528709 
M632.119934,265.675629 
	C627.953186,267.854675 623.436218,269.003052 618.922729,270.162598 
	C598.241211,275.475800 577.271545,277.764435 556.140198,274.046234 
	C544.043213,271.917725 532.288269,267.915527 520.247925,265.380890 
	C494.495728,259.959869 469.514648,251.458694 443.662781,246.467102 
	C441.909698,246.128616 439.728943,246.138840 438.703400,243.322418 
	C440.116608,243.440933 441.080841,243.435211 442.010132,243.612610 
	C458.441193,246.749023 474.813324,250.155777 491.175781,253.644974 
	C517.067566,259.166229 541.954895,269.437195 569.183472,268.891937 
	C581.425415,268.646820 593.897400,271.135864 605.817932,267.538269 
	C614.519958,264.912109 623.116699,261.897461 631.930664,259.579651 
	C633.729065,259.106720 636.349548,259.018677 636.510132,256.454803 
	C636.661804,254.033356 634.260681,253.305283 632.542236,252.464615 
	C621.310974,246.970123 609.683105,242.416916 597.930481,238.179169 
	C594.492615,236.939545 590.263428,234.032089 587.697449,235.078415 
	C583.021606,236.985062 580.113403,234.395950 576.557739,233.328812 
	C573.695374,232.469727 570.998047,231.068527 568.145386,230.168121 
	C537.464783,220.484100 505.732422,216.947418 473.891449,213.947922 
	C469.559052,213.539810 464.650055,214.233124 460.441162,210.382980 
	C464.857086,207.997314 468.872925,208.640381 472.707275,209.092926 
	C492.035858,211.374161 511.352295,213.689163 530.612183,216.597015 
	C560.724854,221.143387 589.871399,228.736633 617.925781,240.658936 
	C627.406433,244.687927 636.635437,249.388016 646.590820,252.278305 
	C648.577026,252.854935 650.579468,253.055496 651.062439,250.728989 
	C652.231567,245.097977 653.105896,239.409088 652.731567,233.590378 
	C652.545410,230.694809 651.147949,228.997879 648.566895,227.993484 
	C643.612610,226.065552 638.778870,223.752808 633.708862,222.213074 
	C623.721191,219.179916 613.556519,216.731873 603.555542,213.739441 
	C588.249878,209.159775 573.169250,203.841064 557.716492,199.731232 
	C556.416016,199.385361 554.569397,199.557983 554.015320,196.768250 
	C573.118713,200.290863 590.872192,207.448059 609.276245,212.156769 
	C593.586731,205.380600 577.432190,200.004440 560.854675,195.825348 
	C562.661316,194.580612 564.339600,194.669891 565.943848,195.069122 
	C573.848572,197.036331 581.830444,198.762085 589.475830,201.632660 
	C606.617798,208.068863 623.718872,214.614029 640.860840,221.050217 
	C644.391174,222.375748 648.027283,223.419617 652.846558,224.996338 
	C651.702698,223.216446 651.545044,222.642700 651.189697,222.465637 
	C638.083496,215.935333 625.128540,209.132645 611.201233,204.338593 
	C589.090454,196.727631 566.329346,191.825073 543.444946,187.428970 
	C523.526611,183.602631 503.697632,179.168060 483.220276,179.076904 
	C458.382111,178.966339 433.643341,180.895493 408.873932,182.183762 
	C388.387115,183.249283 367.996582,185.442703 348.392456,191.817261 
	C320.647827,200.838821 294.734406,213.461075 271.840759,231.908096 
	C265.801147,236.774643 262.905182,242.398575 263.706970,250.521011 
	C267.529510,249.164703 271.049438,248.178207 274.349152,246.700073 
	C289.648407,239.846634 304.663635,232.522171 321.074921,228.223022 
	C341.033447,222.994598 360.802063,217.176575 381.119171,213.285400 
	C396.432831,210.352524 411.866486,210.072571 427.293488,209.271729 
	C430.431580,209.108841 434.116394,208.386536 437.042664,211.820557 
	C393.514130,214.781967 350.747070,220.819092 310.650940,239.370026 
	C347.548279,235.403351 384.314209,232.249405 420.849823,241.426910 
	C416.466522,242.275925 412.096283,242.023651 407.684662,241.605118 
	C398.745148,240.757019 389.888306,239.265640 380.851715,239.132065 
	C362.828583,238.865601 344.896210,240.030350 327.084045,242.452408 
	C310.453583,244.713760 293.866455,247.484680 277.677979,252.092819 
	C264.860901,255.741318 252.740509,261.208466 240.437195,266.271606 
	C217.698166,275.629333 197.610107,288.458313 181.736282,307.434082 
	C177.203903,312.852173 177.975464,322.291565 183.160034,325.883545 
	C184.234497,321.907440 184.259033,317.141998 186.581192,314.174500 
	C191.777573,307.534088 197.122177,300.833099 204.132706,295.812744 
	C222.132797,282.922516 241.513885,272.786133 262.545441,265.744659 
	C287.481598,257.395935 312.472076,249.961288 339.032837,248.071396 
	C360.200714,246.565216 381.289886,246.347961 402.306946,248.196365 
	C440.170013,251.526352 477.175598,259.847992 513.838379,269.643799 
	C531.489624,274.359985 549.118103,279.206116 567.411011,280.552429 
	C576.493530,281.220856 585.852173,281.858673 594.689209,279.765869 
	C608.212646,276.563202 621.713989,273.038391 634.853455,268.374359 
	C639.557312,266.704651 644.485596,265.403534 649.347229,260.859467 
	C642.034119,259.615326 637.844116,264.027985 632.119934,265.675629 
M614.537781,754.040039 
	C619.896118,747.246643 625.443970,740.592468 630.561279,733.622131 
	C636.070618,726.117737 642.201538,719.036865 646.837646,710.920654 
	C651.619202,702.549927 651.877869,700.472412 644.736267,694.094849 
	C639.211670,689.161316 635.634705,683.289307 632.082642,677.134277 
	C629.840698,673.249390 627.446960,669.448059 625.006958,665.683289 
	C623.873718,663.934937 623.555847,662.224487 623.528442,660.100342 
	C623.475037,655.956482 622.786926,651.371094 619.237305,648.951233 
	C615.181641,646.186462 610.372253,644.492798 605.808533,642.523682 
	C603.753784,641.637085 601.322205,640.032288 599.305359,642.089111 
	C597.317322,644.116638 598.455139,646.754517 598.981201,649.193054 
	C599.570679,651.925171 601.563965,652.625977 603.894226,653.434509 
	C608.702759,655.102966 611.888611,661.816711 608.836426,665.616028 
	C605.389587,669.906494 603.431396,674.847351 598.582947,678.806213 
	C573.677979,699.140930 546.145264,715.110535 518.300598,730.757385 
	C515.563660,732.295410 512.099426,733.262146 510.224518,735.581482 
	C508.129211,738.173523 506.581146,740.094849 503.012970,738.870789 
	C501.170074,738.238464 500.262024,739.557861 499.671661,741.045532 
	C498.988525,742.767029 499.646057,744.211243 501.292786,744.641174 
	C507.666199,746.305420 512.716736,749.405090 514.926819,756.025696 
	C515.119629,756.603271 515.719910,757.110535 516.242249,757.501831 
	C519.831238,760.190247 522.156677,763.813843 523.695740,767.915649 
	C530.522339,786.109802 544.281921,799.580017 555.518616,814.766052 
	C557.939575,818.037781 560.302612,818.166626 563.059998,814.742920 
	C579.556335,794.260620 596.880676,774.475708 614.537781,754.040039 
M557.716980,701.189453 
	C568.454773,695.046997 577.718323,686.847839 587.760315,679.740051 
	C593.963928,675.348999 598.694397,670.977539 593.868042,662.843811 
	C593.707642,662.573547 593.739929,662.194031 593.657043,661.872009 
	C588.306335,641.105164 586.224365,619.994324 586.867371,598.578674 
	C586.943542,596.042603 587.656677,593.291443 585.360535,590.314514 
	C579.248169,594.385803 573.403137,598.674133 567.185547,602.328674 
	C557.677002,607.917664 548.058533,613.231323 542.830688,623.657227 
	C539.390442,630.518250 532.932739,634.900024 528.398987,641.008362 
	C521.769714,649.939941 514.597412,658.443542 509.234650,668.260803 
	C508.059631,670.411804 504.394257,670.876465 505.141174,674.282898 
	C506.692322,674.844421 507.509705,672.210022 509.181732,673.425171 
	C506.408905,678.229431 502.514618,679.451965 497.078766,678.525940 
	C489.147217,677.174744 489.295197,677.534241 488.925476,685.968811 
	C488.472473,696.302979 486.119446,706.069702 478.591370,713.822388 
	C477.548187,714.896667 477.019867,716.112915 477.411041,717.425720 
	C479.164703,723.311157 479.741913,729.515015 482.221680,735.198914 
	C483.985260,739.241272 486.492554,739.726807 490.617401,737.989746 
	C514.039734,728.126709 535.627075,714.968689 557.716980,701.189453 
M771.441467,784.878296 
	C766.083679,786.321960 761.567566,789.982971 755.990112,791.147034 
	C755.520447,788.510620 757.136536,787.211670 758.589661,786.350037 
	C771.429382,778.736694 785.609314,777.502930 800.245056,777.992126 
	C798.562317,776.793396 796.789246,776.107666 795.111633,775.237793 
	C779.310730,767.043762 763.475403,758.913940 747.751831,750.573547 
	C733.197083,742.853210 718.494324,735.288330 707.695679,722.226135 
	C705.783997,719.913757 703.013367,718.945129 700.245728,718.492004 
	C692.194519,717.173889 684.395081,718.504028 677.006775,721.794739 
	C672.569153,723.771240 667.580872,733.499512 668.079346,738.190613 
	C668.294922,740.218933 669.437134,741.570801 670.993835,742.612671 
	C674.446960,744.923767 677.953857,747.154602 681.442322,749.412842 
	C701.433594,762.352966 723.246460,772.082214 743.478210,784.607605 
	C748.535645,787.738647 752.938721,791.739624 757.855713,795.068237 
	C760.193909,796.651062 761.379822,797.042114 763.753235,796.140930 
	C775.309937,791.753052 787.258728,789.100647 799.632629,788.533691 
	C800.810974,788.479675 802.099609,788.742493 802.561829,787.313232 
	C803.059082,785.775757 802.770569,784.281006 801.395447,783.291138 
	C799.749756,782.106506 797.886108,781.564392 795.813660,781.424316 
	C787.711365,780.876770 779.957336,782.759583 771.441467,784.878296 
M227.223129,335.791718 
	C232.968781,325.512726 238.115280,314.885193 245.189026,305.384308 
	C253.453537,294.284088 262.718109,284.113983 273.023895,274.876343 
	C274.274109,273.755707 276.579834,272.726257 275.288391,270.488373 
	C274.035126,268.316681 271.709900,268.285492 269.496490,268.819733 
	C262.698059,270.460510 255.954422,272.400085 249.691498,275.504120 
	C239.598068,280.506592 229.196960,284.857178 219.462799,290.639648 
	C208.690262,297.038971 199.377914,304.897369 192.337296,315.252502 
	C185.829086,324.824554 188.086990,332.147003 198.605820,336.769714 
	C206.353928,340.174805 214.532288,339.787720 222.689835,339.538300 
	C224.716370,339.476349 226.051636,338.249756 227.223129,335.791718 
M480.566193,679.043945 
	C482.636932,676.160278 481.048248,673.582397 479.611359,671.232666 
	C478.710388,669.759338 476.889221,670.105408 475.527802,670.899292 
	C470.924347,673.583435 466.481842,676.294861 463.834656,681.381104 
	C459.924377,688.894287 455.521210,696.147461 450.033844,702.675537 
	C446.940704,706.355286 442.546417,709.679016 441.195038,713.941956 
	C437.638000,725.162231 434.964874,736.735413 433.632751,748.480652 
	C432.682526,756.859009 430.968384,765.039673 429.004822,773.203247 
	C427.631470,778.912964 426.359680,784.647156 425.042542,790.370422 
	C425.422211,790.538391 425.801910,790.706421 426.181610,790.874390 
	C433.866364,780.497559 442.850311,771.077881 449.558380,760.017578 
	C455.403564,750.380005 462.811798,743.141418 473.816101,740.129578 
	C476.799011,739.313171 477.091583,737.692139 476.081696,735.315918 
	C471.927887,725.541809 471.332886,714.970093 469.311798,704.729553 
	C468.421631,700.219238 466.822510,694.322754 469.499939,691.190552 
	C472.845093,687.277100 475.612823,682.555481 480.566193,679.043945 
M371.376740,748.815125 
	C383.737854,743.595215 397.021912,740.616150 408.157349,732.412476 
	C414.991974,727.377197 419.622467,720.383606 425.775726,714.806030 
	C426.946472,713.744812 426.645966,712.401428 426.053802,711.111450 
	C425.420319,709.731567 424.211121,709.835876 423.052551,710.007263 
	C418.938049,710.615906 414.843903,711.375793 410.719238,711.898743 
	C403.632202,712.797424 400.529877,718.383301 395.962067,723.115601 
	C401.921509,726.360718 406.233093,722.178711 411.092773,721.676636 
	C408.696198,726.791077 401.440521,729.202148 395.776154,726.879089 
	C394.053223,726.172485 392.608459,725.246094 390.679230,726.420410 
	C375.154022,735.871338 357.475677,739.991638 340.744476,746.455139 
	C333.908539,749.095947 328.478546,753.098511 325.696045,760.076111 
	C324.733521,762.489807 323.339600,765.027405 326.458740,767.903137 
	C340.419128,760.190979 355.487854,754.528137 371.376740,748.815125 
M528.934082,341.446503 
	C532.963074,339.047272 533.395325,336.346771 530.352417,332.552826 
	C524.529785,325.293243 519.202148,317.656372 514.579773,309.554626 
	C513.744934,308.091400 512.890381,306.639130 510.358154,306.899872 
	C501.639252,327.879456 494.045593,349.668335 480.152954,368.651703 
	C497.657867,361.868408 512.397461,350.779419 528.934082,341.446503 
M313.730499,519.690613 
	C312.767883,516.953003 313.025879,513.586792 309.899048,511.948792 
	C300.818665,507.191864 295.469208,499.517212 292.199219,490.010406 
	C290.703217,485.661102 289.606598,481.385132 290.788483,476.855865 
	C292.354553,470.854492 290.217804,467.352875 283.743835,465.852448 
	C280.708710,470.085114 283.532440,475.565948 281.066589,480.464142 
	C277.745270,476.846924 278.873322,472.880127 278.799622,469.262146 
	C278.739258,466.298309 277.786133,465.000977 274.710785,465.123749 
	C271.346283,465.258057 270.426514,467.015381 270.725067,470.023529 
	C271.206055,474.870422 272.584442,479.470886 274.306702,483.998260 
	C280.803192,501.075836 289.224030,516.789124 305.276978,526.927246 
	C308.103119,528.712097 311.413849,532.457275 314.517426,530.148560 
	C317.685913,527.791565 314.638916,523.747253 313.730499,519.690613 
M387.847839,357.507050 
	C387.664490,352.513031 390.294067,347.672455 389.250519,342.450134 
	C385.931458,342.750641 384.899445,345.061737 383.539764,346.811462 
	C378.952484,352.714569 374.615173,358.817993 369.446075,364.247162 
	C365.664062,368.219452 361.783569,372.098755 358.033600,376.100616 
	C355.762817,378.523956 355.703156,381.013580 358.900970,382.593292 
	C365.742279,385.972931 372.606018,389.337463 379.632202,392.301208 
	C383.764954,394.044495 385.775940,392.616821 385.723907,388.214447 
	C385.605804,378.215820 386.566345,368.312714 387.847839,357.507050 
M260.528198,348.334778 
	C261.827393,343.646973 262.721558,338.935364 261.753876,333.879547 
	C258.948792,335.010742 259.149109,337.576599 258.080933,339.342285 
	C257.235687,340.739502 257.086090,342.477539 255.702942,343.639282 
	C248.231262,349.915039 247.792099,358.353333 248.700546,367.124542 
	C248.847733,368.545593 249.326004,370.234070 251.227997,370.383972 
	C252.864853,370.513000 253.837570,369.130890 253.903732,367.917633 
	C254.280243,361.012817 258.157867,355.341858 260.528198,348.334778 
M673.342102,247.892365 
	C671.968689,250.851120 672.462585,253.526749 674.036194,256.365692 
	C675.888184,259.706940 678.330322,262.315369 682.187683,261.520813 
	C686.374634,260.658447 688.329102,257.026520 688.530884,253.019211 
	C688.782043,248.032700 685.647766,245.259186 681.162231,243.676453 
	C677.401428,242.349442 675.132935,243.880600 673.342102,247.892365 
M666.518799,236.214233 
	C663.641418,234.908798 660.333191,233.599472 659.606323,238.161255 
	C658.733643,243.638214 657.733582,249.211990 658.619629,254.817596 
	C659.053650,257.563538 661.321228,258.545105 663.408569,257.598999 
	C665.988525,256.429565 668.752625,254.822235 668.626221,251.129303 
	C668.545959,248.785217 668.803955,246.331924 670.187073,244.455276 
	C673.427124,240.059082 671.993774,237.694016 666.518799,236.214233 
M308.975464,505.541931 
	C307.721710,497.961029 305.141113,490.753967 302.469360,483.608887 
	C301.263397,480.383667 299.123199,477.561432 294.979156,476.834045 
	C292.903015,481.442902 294.740143,485.561462 296.166443,489.471680 
	C298.598938,496.140381 300.875000,503.025085 307.448944,507.153320 
	C309.071747,508.172424 309.476868,508.081055 308.975464,505.541931 
M265.771606,372.995117 
	C267.532135,372.314514 267.445801,372.304565 267.744049,369.720367 
	C268.545563,362.775635 269.246185,355.792175 272.365295,349.514496 
	C274.860016,349.915649 274.599091,352.036896 275.687805,353.067780 
	C277.092865,349.046783 278.316833,345.258057 279.741913,341.546509 
	C281.150848,337.877075 282.735779,334.279846 282.415955,330.211945 
	C280.148743,329.521118 278.957672,330.285278 278.483643,332.249115 
	C277.920837,334.580719 276.567352,336.537201 275.106232,338.284393 
	C268.501801,346.182220 266.578918,355.565765 266.067596,365.456696 
	C265.947845,367.773010 265.736359,370.084564 265.771606,372.995117 
M820.819336,821.432251 
	C821.311768,822.266907 821.804260,823.101562 822.456787,824.207458 
	C821.379456,808.001465 818.993164,793.688965 808.153198,794.242371 
	C811.317078,803.675964 815.102905,812.626770 820.819336,821.432251 
M542.820374,431.027710 
	C541.261597,431.191101 540.011414,431.975403 538.829468,432.943451 
	C537.557617,433.985168 536.884827,435.246857 537.356567,436.885712 
	C537.822327,438.503693 539.089172,439.533264 540.645508,439.529419 
	C545.125122,439.518372 549.641174,439.349152 553.918030,437.864136 
	C555.660706,437.259064 557.254822,435.924683 556.972534,433.781616 
	C556.697266,431.692200 554.925903,430.882294 553.062134,430.424988 
	C549.874878,429.643036 546.776917,430.670532 542.820374,431.027710 
M714.657227,335.770752 
	C713.978455,332.177063 712.908813,328.710327 710.898804,325.630127 
	C710.109497,324.420563 709.071167,322.925964 707.319763,323.920532 
	C705.873108,324.742035 706.410645,326.240356 706.824646,327.498657 
	C708.361328,332.169891 709.702454,336.926697 711.603943,341.446533 
	C712.382935,343.298096 712.793884,346.018524 715.885071,346.568787 
	C717.731323,342.860962 714.898743,339.856262 714.657227,335.770752 
M636.375732,329.294495 
	C636.401733,335.492096 637.952271,341.060120 642.722778,345.943817 
	C643.463257,344.784058 643.941284,344.294739 644.121338,343.713165 
	C645.895569,337.981049 642.659851,333.092773 641.053894,328.048218 
	C640.300354,325.681030 637.857910,326.191895 636.375732,329.294495 
M362.801697,455.158417 
	C361.883545,458.543549 364.159821,458.777740 366.462494,458.694031 
	C369.827179,458.571686 372.821411,456.983643 375.969452,456.003540 
	C377.489777,455.530182 378.876221,454.872711 378.629089,452.991882 
	C378.359314,450.938690 376.741394,450.255432 374.982086,450.442841 
	C370.747009,450.893951 366.313171,450.927155 362.801697,455.158417 
M684.296387,755.209595 
	C681.304321,753.291931 678.452209,751.105530 674.603699,749.770264 
	C678.164001,756.704285 686.835510,762.964722 692.434509,762.721252 
	C690.746887,759.289856 687.477905,757.803528 684.296387,755.209595 
M309.593933,863.155640 
	C309.700378,861.101257 309.806824,859.046875 309.913300,856.992493 
	C307.625580,864.381592 302.042084,871.295044 306.778442,880.850830 
	C307.798767,874.359924 308.614105,869.173096 309.593933,863.155640 
M756.193176,799.386414 
	C756.269653,797.712891 755.244080,797.111145 754.019104,797.891541 
	C749.621399,800.693176 744.249878,802.624146 743.067444,809.489624 
	C747.645508,806.053467 751.750244,802.972595 756.193176,799.386414 
M532.289978,411.304382 
	C529.903870,407.326874 526.678162,409.049164 523.707214,410.213501 
	C522.580750,410.654938 522.117615,412.121094 523.120178,413.164856 
	C525.759338,415.912598 528.526733,414.730682 531.198853,413.118835 
	C531.593628,412.880737 531.816406,412.357483 532.289978,411.304382 
M346.573578,434.069641 
	C348.771332,437.259247 351.317627,437.492188 353.964478,434.732788 
	C355.180084,433.465485 355.164795,431.652557 353.526703,430.925262 
	C350.634491,429.641205 347.629913,429.121185 346.573578,434.069641 
M729.244446,339.037018 
	C728.803894,339.114014 728.032654,339.088776 727.972595,339.283386 
	C727.135254,341.992432 730.441711,350.045898 733.266174,352.061554 
	C734.280151,347.143768 731.564941,343.421082 729.244446,339.037018 
M698.193481,765.156799 
	C702.870667,769.540527 708.895874,770.889465 714.739868,772.677979 
	C709.554199,769.405151 704.174133,766.542542 698.754150,763.757507 
	C697.820801,763.277954 696.990417,763.374634 698.193481,765.156799 
M782.092407,764.501465 
	C784.382507,765.848022 786.668518,767.201660 788.963989,768.539062 
	C791.097961,769.782410 793.241943,771.008484 796.513550,772.894836 
	C792.755310,767.574890 786.337463,764.069458 778.237915,762.195129 
	C778.984375,763.543518 780.518127,763.397705 782.092407,764.501465 
M293.378021,337.719238 
	C293.270844,339.038269 291.646912,340.212097 293.302612,342.160858 
	C294.960419,339.325989 297.562500,337.265656 296.901794,333.507904 
	C294.453278,333.799957 294.412537,335.760284 293.378021,337.719238 
M260.856995,246.526886 
	C260.717651,245.877213 260.178497,244.951065 259.728912,245.438156 
	C258.023682,247.285599 256.588013,249.365814 258.352234,252.074219 
	C261.057129,251.135452 260.955322,249.130615 260.856995,246.526886 
z"/>
<path fill="#000000" opacity="1.000000" stroke="none" 
	d="
M666.347168,912.871460 
	C665.873230,919.276917 666.900574,925.428467 664.281433,931.390686 
	C661.562256,927.454468 658.379944,923.893677 658.676819,918.890930 
	C659.011780,913.246887 659.598389,907.617126 660.110168,901.984253 
	C660.693665,895.561890 659.302490,893.590881 652.934143,893.510864 
	C633.121521,893.262024 613.304321,892.555359 593.493103,893.486023 
	C590.461609,893.628418 587.527039,893.608215 584.618835,892.647827 
	C578.065125,890.483704 571.418091,891.696289 564.816833,892.303040 
	C561.815125,892.578918 560.556213,894.924927 560.495850,897.604065 
	C560.353699,903.912476 560.435059,910.227417 560.514893,916.538635 
	C560.552856,919.540405 563.171509,919.308167 564.945496,919.396545 
	C573.424377,919.819092 581.919739,919.900757 590.400879,920.288208 
	C606.526428,921.024902 622.646606,921.878967 638.767761,922.709351 
	C640.541992,922.800781 642.419800,922.699768 643.832520,924.061951 
	C643.350342,925.548218 642.193237,925.376770 641.286255,925.411316 
	C614.623108,926.425171 588.042969,925.468445 561.543823,922.211670 
	C557.891357,921.762756 556.161926,920.756836 556.680481,916.651611 
	C557.156250,912.885437 556.781494,909.011780 556.329590,905.126709 
	C552.495300,912.115601 555.641479,920.314941 553.305481,927.663086 
	C550.743896,926.849548 550.829529,925.227356 550.787292,923.773560 
	C550.510925,914.256409 551.179626,904.798340 553.182739,895.488831 
	C554.322144,890.193237 558.764771,887.369202 565.417419,887.479248 
	C590.892273,887.900574 616.368530,888.284546 641.838318,888.921143 
	C648.639709,889.091125 655.409424,890.330811 662.213867,890.651672 
	C666.032471,890.831787 666.956543,892.740112 667.166504,896.002686 
	C667.521851,901.526367 666.712524,906.970825 666.347168,912.871460 
z"/>
<path fill="#000000" opacity="1.000000" stroke="none" 
	d="
M631.915588,829.934082 
	C647.343933,812.243835 662.550110,794.829651 677.756287,777.415466 
	C677.525330,784.158447 595.174438,877.478088 588.652527,878.176270 
	C602.999512,862.187500 617.346497,846.198792 631.915588,829.934082 
z"/>
<path fill="#000000" opacity="1.000000" stroke="none" 
	d="
M718.218323,423.590729 
	C714.198242,419.162994 712.730469,413.551453 709.479004,408.919525 
	C706.008057,403.974823 703.817444,403.168518 698.675842,405.999664 
	C695.294067,407.861847 691.878235,409.330322 687.871155,409.356598 
	C684.569397,409.378204 681.802124,410.902893 680.396362,414.061493 
	C679.344788,416.424164 678.782532,418.590027 681.948730,420.323822 
	C691.188599,425.383484 695.743774,439.333252 692.132568,449.745300 
	C689.088684,458.521667 683.417603,465.246918 675.574036,471.481232 
	C683.487732,470.822723 689.418945,468.028961 695.249512,464.309845 
	C700.982544,460.652985 703.747864,454.105682 709.456604,450.681671 
	C710.458313,451.118347 710.356445,451.839966 709.966370,452.345764 
	C702.144592,462.486938 693.607910,471.587372 680.348877,474.629303 
	C672.266296,476.483612 664.209351,478.640259 657.749878,484.283386 
	C651.266235,475.367767 650.939392,471.700836 657.018311,463.526489 
	C660.423035,458.948029 661.011047,455.059753 659.990967,449.125366 
	C658.312012,439.358276 662.150635,429.776184 666.598938,420.902863 
	C671.152771,411.818970 677.660400,404.324127 686.017273,398.486206 
	C693.775879,393.066193 701.938171,392.960754 709.700562,398.129272 
	C713.613647,400.734802 714.439148,405.195892 716.103149,409.067017 
	C717.662231,412.693787 718.567688,416.602448 719.744385,420.392181 
	C720.168030,421.756653 720.309814,423.051697 718.218323,423.590729 
M664.316711,474.858124 
	C676.807861,472.181824 680.954407,462.019531 686.125916,450.954132 
	C681.005188,451.993805 677.512817,450.824799 674.312073,448.312378 
	C672.744446,447.081848 670.583862,446.448151 668.775208,448.055237 
	C666.966858,449.661926 665.911560,451.665894 666.490723,454.276398 
	C667.694946,459.704224 666.832214,464.723389 663.842590,469.520142 
	C662.940186,470.968109 660.726135,473.087067 664.316711,474.858124 
M681.949646,425.812744 
	C678.760071,423.753723 676.697021,424.984619 675.259033,428.090149 
	C673.782349,431.279083 674.446594,433.531097 678.079773,434.384125 
	C678.960205,434.590790 679.858154,434.866455 679.916809,435.759064 
	C680.265320,441.056091 684.043640,441.460693 688.518616,441.683807 
	C687.514648,435.984650 688.378418,429.872131 681.949646,425.812744 
z"/>
<path fill="#000000" opacity="1.000000" stroke="none" 
	d="
M522.545166,534.909668 
	C524.137939,539.065979 521.167419,540.966370 518.844238,542.875793 
	C511.247650,549.119385 502.049225,552.301514 492.891541,555.149719 
	C481.491516,558.695374 469.729218,560.953308 457.934540,562.894592 
	C455.989532,563.214722 454.016022,563.377014 451.770172,562.480164 
	C453.091614,559.130920 456.114441,559.484863 458.426025,558.980835 
	C472.862946,555.832825 487.368317,553.004456 501.036621,547.067566 
	C506.460083,544.711853 511.274567,541.720032 515.109375,537.110901 
	C516.857422,535.009827 518.936584,532.647217 522.545166,534.909668 
z"/>
<path fill="#000000" opacity="1.000000" stroke="none" 
	d="
M437.843384,586.983643 
	C436.182739,585.783691 433.941864,585.531311 434.169434,582.365906 
	C446.152039,582.190186 458.159668,581.731262 470.852142,579.762207 
	C467.756256,584.452820 462.078064,586.481873 442.327301,590.757446 
	C441.010895,589.565491 440.629089,587.101990 437.843384,586.983643 
z"/>
<path fill="#000000" opacity="1.000000" stroke="none" 
	d="
M403.739563,520.328857 
	C402.088318,518.657593 400.592529,517.328369 399.303253,515.822327 
	C394.257233,509.927704 394.972504,507.018951 402.460144,503.384033 
	C406.273529,507.955597 408.628265,513.442444 411.455261,518.640625 
	C412.238861,520.081543 412.313049,521.592896 411.103302,522.778992 
	C409.932251,523.927185 408.576813,523.138245 407.407654,522.596191 
	C406.214722,522.043091 405.124878,521.267700 403.739563,520.328857 
z"/>
<path fill="#000000" opacity="1.000000" stroke="none" 
	d="
M422.760437,567.759888 
	C417.890381,568.836487 413.471161,568.000549 409.048157,567.376831 
	C407.148743,567.109009 405.637482,566.078186 404.444855,564.647888 
	C403.478729,563.489197 402.543579,562.115845 403.685883,560.630554 
	C404.774689,559.214844 406.170197,560.038025 407.256714,560.705811 
	C412.523895,563.942993 418.231781,563.695496 424.056183,563.170837 
	C426.881989,562.916199 429.897430,562.490479 432.895294,564.991150 
	C429.633026,567.311768 426.328918,567.288940 422.760437,567.759888 
z"/>
<path fill="#000000" opacity="1.000000" stroke="none" 
	d="
M430.397064,516.337097 
	C429.830902,512.247253 432.797455,512.381958 435.103760,512.219482 
	C437.838440,512.026794 439.486938,513.382812 439.057251,516.750793 
	C436.262360,517.091675 433.487000,518.375366 430.397064,516.337097 
z"/>
<path fill="#000000" opacity="1.000000" stroke="none" 
	d="
M716.217346,228.165802 
	C720.063049,220.707764 726.617371,214.874496 725.670105,204.539413 
	C729.499878,211.950974 722.949768,226.965393 714.579224,232.910431 
	C713.694092,230.941910 715.506470,229.910400 716.217346,228.165802 
z"/>
<path fill="#000000" opacity="1.000000" stroke="none" 
	d="
M610.522583,232.435944 
	C617.558838,234.824173 624.394165,236.631805 630.795898,239.572586 
	C630.589355,240.176636 630.382812,240.780670 630.176270,241.384720 
	C616.257996,236.772766 602.339722,232.160812 588.421448,227.548859 
	C588.576660,227.039200 588.731812,226.529556 588.886963,226.019913 
	C596.067200,227.769852 603.200378,229.695938 610.522583,232.435944 
z"/>
<path fill="#000000" opacity="1.000000" stroke="none" 
	d="
M637.336853,243.999771 
	C636.078857,243.267410 635.119263,242.711304 633.298157,241.655975 
	C638.929749,241.649933 642.809509,243.458572 647.306152,246.722672 
	C643.084534,246.879715 640.413879,245.315994 637.336853,243.999771 
z"/>
<path fill="#000000" opacity="1.000000" stroke="none" 
	d="
M682.722961,730.888855 
	C684.504517,724.605896 693.570801,721.457031 700.311523,728.374573 
	C697.509094,727.942200 695.412903,727.450928 693.295227,727.327026 
	C688.838196,727.066162 684.603821,729.688721 684.993835,732.715820 
	C685.521423,736.809265 688.755493,738.434998 692.468445,738.804993 
	C697.442383,739.300476 702.133057,738.686707 704.943665,733.383423 
	C705.996521,736.880127 705.648315,738.161072 703.426636,739.948242 
	C697.780884,744.490173 685.319885,742.874634 681.109070,737.058350 
	C679.871887,735.349548 679.219360,733.510681 680.092102,731.455566 
	C680.683838,730.062134 681.735718,730.939270 682.722961,730.888855 
z"/>
</svg>