<svg version="1.1" id="Layer_1" xmlns="http://www.w3.org/2000/svg" xmlns:xlink="http://www.w3.org/1999/xlink" x="0px" y="0px"
	 width="100%" viewBox="0 0 1024 560" enable-background="new 0 0 1024 560" xml:space="preserve">
<path fill="#000000" opacity="1.000000" stroke="none" 
	d="
M607.824158,365.700745 
	C625.228088,357.947144 641.796326,357.826050 657.341858,369.206360 
	C661.340088,372.133331 664.650940,375.994171 668.313110,379.387665 
	C669.993958,380.945190 671.239563,383.021301 673.936951,384.105499 
	C675.267578,381.652618 676.641357,379.234741 677.909973,376.762909 
	C686.356506,360.305359 700.328491,351.723358 718.116638,348.766998 
	C736.382751,345.731171 754.607300,347.111908 772.794800,349.712830 
	C774.333740,349.932922 776.052856,350.185699 775.938721,352.149933 
	C775.815735,354.267029 773.735413,354.482697 772.207031,354.876587 
	C759.629456,358.118225 746.841675,360.304657 734.023193,362.325165 
	C728.432861,363.206329 722.863953,364.165894 717.523499,366.145569 
	C707.269775,369.946533 699.273438,376.312012 694.370117,386.272186 
	C691.795959,391.501007 689.399536,396.840057 686.472900,401.867401 
	C681.575439,410.280273 673.772034,410.543457 668.188843,402.552399 
	C664.939453,397.901550 661.622864,393.348755 657.782349,389.153564 
	C646.318298,376.630768 631.780029,373.614532 615.824219,376.004486 
	C605.311768,377.579132 594.951233,380.160767 584.512390,382.240051 
	C582.843384,382.572479 580.650208,383.809418 579.834778,381.216156 
	C579.159790,379.069672 581.309692,378.439941 582.714966,377.751556 
	C590.937500,373.723633 599.206482,369.790405 607.824158,365.700745 
M709.760559,355.273499 
	C691.185059,360.058990 683.059021,375.398499 674.755554,391.519348 
	C669.278625,386.105865 664.697937,381.342102 659.867798,376.846252 
	C642.074158,360.284027 623.142334,360.836578 601.572021,374.177490 
	C605.308594,373.436432 609.018555,372.500671 612.786072,371.986267 
	C635.081116,368.942200 654.090637,374.089722 667.130310,393.998108 
	C668.676270,396.358368 670.409241,398.623657 672.270752,400.744049 
	C676.278442,405.309235 679.455200,405.129883 682.420349,399.904999 
	C685.125061,395.138947 687.370300,390.110992 689.790344,385.184784 
	C695.616394,373.324951 704.960022,365.625977 717.466614,361.576630 
	C723.512451,359.619080 729.753235,358.701416 735.990723,357.684296 
	C743.858154,356.401398 751.700500,354.964630 759.553711,353.594238 
	C742.962769,350.605804 726.633972,350.535492 709.760559,355.273499 
z"/>
<path fill="#000000" opacity="1.000000" stroke="none" 
	d="
M363.790344,323.890381 
	C370.229736,327.500763 374.685608,332.655579 378.848999,338.114777 
	C379.757874,339.306519 380.998657,340.631744 379.704651,342.079315 
	C378.279114,343.674072 376.988434,342.246918 375.849548,341.346252 
	C359.229675,328.203278 344.165131,334.172363 331.908142,347.546814 
	C328.338562,351.441803 325.681244,356.175079 322.628937,360.540283 
	C321.866089,361.631287 321.298035,362.871002 320.460114,363.894775 
	C317.305420,367.749298 314.372406,372.449341 308.455231,371.388458 
	C302.739868,370.363708 302.286682,364.892517 301.043945,360.574371 
	C298.604523,352.098236 296.747925,343.461243 292.647186,335.532349 
	C284.568512,319.911865 272.011322,315.374512 255.957352,322.360321 
	C254.224670,323.114288 252.066208,324.952545 250.705841,322.491760 
	C249.287766,319.926575 252.139526,319.098633 253.706650,318.245453 
	C257.797211,316.018341 261.927704,313.783600 266.249786,312.077484 
	C281.464417,306.071503 293.827393,310.002594 303.362152,323.399384 
	C308.228516,330.236816 311.535797,337.815521 314.470215,346.166718 
	C318.839630,341.127197 323.011139,336.645813 327.698059,332.709534 
	C335.528564,326.133179 344.088776,321.326843 354.787933,321.638458 
	C357.868530,321.728180 360.697723,322.453430 363.790344,323.890381 
M309.743683,345.558350 
	C309.384735,344.450195 309.113739,343.303955 308.653198,342.239777 
	C304.261322,332.092529 299.644379,322.111023 289.489685,316.188538 
	C283.814728,312.878784 278.229828,312.402588 273.511139,315.214813 
	C284.990540,317.754486 291.941711,325.135895 296.785126,335.053497 
	C300.400391,342.456299 302.040894,350.447845 304.288513,358.269531 
	C305.264740,361.666779 305.004852,366.513733 309.276947,367.268005 
	C313.709320,368.050598 315.483246,363.498291 317.607971,360.436493 
	C322.157043,353.881195 325.973358,346.757751 332.038361,341.382324 
	C340.774689,333.639252 350.255157,327.847382 362.725067,330.589874 
	C363.391693,330.736481 364.431671,330.958832 364.619080,329.724457 
	C358.562653,324.762909 351.374237,324.024109 343.103333,327.592285 
	C332.240906,332.278503 324.176819,340.383453 316.785675,349.291412 
	C315.763733,350.523071 315.183136,352.585022 313.135132,352.154480 
	C311.205963,351.748871 311.234497,349.659271 310.641388,348.166870 
	C310.395905,347.549042 310.188599,346.916077 309.743683,345.558350 
z"/>
<path fill="#000000" opacity="1.000000" stroke="none" 
	d="
M525.524475,234.303818 
	C513.417969,237.265091 504.306213,243.849655 497.851196,253.932312 
	C495.921265,256.946808 494.103882,257.400848 491.480164,255.216614 
	C478.429688,244.352219 464.724304,245.302338 450.611328,252.872147 
	C446.948090,254.837006 443.231934,256.705658 439.506866,258.551514 
	C438.103088,259.247101 436.819824,260.687469 434.977020,259.652527 
	C435.323212,256.182312 441.156555,250.377563 450.266418,243.869675 
	C456.898163,239.132111 463.945343,236.272369 472.203583,237.872849 
	C479.834290,239.351715 486.265472,243.564865 492.988007,248.013519 
	C496.563568,242.840912 499.952515,238.160507 504.066589,234.050400 
	C512.468079,225.656998 522.205261,222.737228 533.704590,226.194916 
	C538.954346,227.773453 544.234680,229.250854 549.477783,230.850769 
	C550.742065,231.236572 552.280273,231.897324 551.924744,233.514206 
	C551.484741,235.515320 549.743591,235.216965 548.260254,234.797989 
	C540.866516,232.709518 533.408081,233.697617 525.524475,234.303818 
M515.970947,230.329514 
	C510.542236,232.781784 506.497589,236.844864 502.937866,241.517899 
	C511.135590,235.805801 519.553467,230.667465 530.991211,229.870636 
	C525.380432,228.413025 521.016907,228.590576 515.970947,230.329514 
M469.126892,241.267654 
	C461.200500,241.126648 456.915009,242.809662 451.546967,248.305511 
	C459.483856,244.715912 467.463776,242.610229 476.069305,242.926315 
	C474.032135,242.400253 471.994965,241.874176 469.126892,241.267654 
z"/>
<path fill="#000000" opacity="1.000000" stroke="none" 
	d="
M655.914917,173.565277 
	C661.197510,175.444992 663.899597,179.424835 666.328308,183.653763 
	C666.824158,184.517197 667.142273,185.535248 666.274231,186.413345 
	C665.390198,187.307648 664.353271,187.071136 663.596497,186.365707 
	C653.781433,177.216278 645.253540,182.834351 636.792542,188.709213 
	C634.614136,190.221725 632.735168,192.170090 630.537354,193.648941 
	C627.082214,195.973816 625.053955,195.153824 623.967834,191.158142 
	C623.489441,189.397903 623.265442,187.569839 622.823181,185.798248 
	C620.238037,175.442566 615.399475,172.817154 605.171204,175.950653 
	C602.448364,176.784821 600.035950,179.028259 597.005005,178.353287 
	C595.967041,176.438263 597.070862,175.490738 598.082886,174.683289 
	C603.461243,170.392044 609.333374,166.911072 615.996826,165.100204 
	C620.813599,163.791168 624.896484,165.279312 627.667725,169.608841 
	C629.626648,172.669296 631.482056,175.796051 633.553223,179.169373 
	C640.817932,176.958359 647.038879,170.559723 655.914917,173.565277 
M654.770386,178.447433 
	C655.571289,178.447433 656.372131,178.447433 657.852539,178.447433 
	C653.030640,174.877472 648.697754,175.880554 644.437866,177.905060 
	C640.170837,179.932968 636.003296,182.169952 631.835510,184.293198 
	C622.002686,166.609543 620.852417,165.785706 611.839661,170.888885 
	C624.839783,171.651627 624.840576,182.320740 627.914795,191.148392 
	C636.415344,185.288651 643.853149,178.812851 654.770386,178.447433 
z"/>
</svg>