<svg version="1.1" id="Layer_1" xmlns="http://www.w3.org/2000/svg" xmlns:xlink="http://www.w3.org/1999/xlink" x="0px" y="0px"
	 width="100%" viewBox="0 0 2752 1536" enable-background="new 0 0 2752 1536" xml:space="preserve">
<path fill="none" opacity="1.000000" stroke="#000000" stroke-linecap="round" stroke-linejoin="round" stroke-width="3.000000"
	d="
M476.000000,729.000000 
	C469.791199,719.835144 460.005768,722.430481 452.040161,723.348389 
	C433.137177,725.526794 418.109711,735.555237 407.041046,751.029358 
	C394.018677,769.234741 402.508942,781.086853 415.955261,789.075317 
	C439.153137,802.857178 463.754486,804.723267 490.044891,801.349854 
	C511.708466,798.570190 532.737976,793.380676 554.002014,789.009949 
	C555.352722,788.732300 556.622009,788.782288 558.068054,788.157471 
	C562.888306,786.074768 568.121765,783.039490 572.969910,783.402222 
	C579.364929,783.880676 577.940247,791.944641 581.043152,795.966736 
	C590.589417,808.341003 603.807861,815.658081 618.046692,820.872559 
	C637.667236,828.057861 658.290100,832.856873 678.991882,832.512756 
	C701.154907,832.144287 723.007568,827.839417 744.179260,819.452576 
	C757.485962,814.181458 768.442566,805.233154 781.500000,800.000000 
"/>
<path fill="none" opacity="1.000000" stroke="#000000" stroke-linecap="round" stroke-linejoin="round" stroke-width="4.000000"
	d="
M2567.000000,811.000000 
	C2568.393555,814.817871 2567.039307,816.820251 2562.999756,816.997009 
	C2548.931152,817.612671 2535.125732,820.568665 2521.006836,821.164734 
	C2495.666016,822.234497 2470.375488,824.251099 2445.016113,825.368347 
	C2419.018799,826.513855 2392.967529,827.600281 2367.030518,829.432861 
	C2342.638916,831.156433 2318.335449,830.725098 2293.999268,830.900879 
	C2258.623291,831.156311 2223.260010,829.277283 2188.028320,826.622681 
	C2166.923096,825.032410 2145.903076,821.028809 2124.923584,817.446838 
	C2113.565430,815.507507 2102.026367,814.969360 2090.963135,811.105347 
	C2085.917480,809.343018 2081.141113,806.877991 2077.152344,803.802551 
	C2069.202393,797.672852 2065.271240,789.104309 2075.006348,779.006226 
	C2085.714844,767.898804 2099.898926,763.077332 2114.060791,759.223022 
	C2134.825195,753.571716 2156.046387,752.760315 2176.968994,759.102539 
	C2182.522217,760.785950 2184.803223,759.869995 2187.212158,754.088440 
	C2197.364990,729.723999 2216.985352,716.329407 2242.055664,711.276123 
	C2253.542725,708.960815 2265.223633,711.286194 2275.000000,719.000000 
"/>
<path fill="none" opacity="1.000000" stroke="#000000" stroke-linecap="round" stroke-linejoin="round" stroke-width="4.000000"
	d="
M781.000000,797.000000 
	C787.294617,810.024231 800.169006,814.174988 812.079712,818.794373 
	C829.978943,825.736450 848.703552,829.193298 867.957886,831.372314 
	C896.494263,834.601685 923.970581,832.928345 951.026733,823.073486 
	C972.983521,815.075928 990.633240,801.965759 1003.487793,780.732483 
	C1015.163269,795.175720 1032.244019,797.232910 1048.047241,798.298828 
	C1061.697876,799.219604 1076.013428,794.784668 1086.038208,783.032593 
	C1088.676514,779.939758 1090.947388,779.492188 1096.104736,780.413818 
	C1118.626587,784.438782 1141.032227,789.275940 1163.958496,791.439941 
	C1178.706909,792.831909 1193.410156,793.599792 1207.983643,792.726562 
	C1235.722168,791.064392 1262.693604,784.996277 1287.964111,772.924988 
	C1295.461914,769.343445 1304.374390,765.586670 1304.683716,755.989807 
	C1305.012573,745.792847 1296.967773,740.020386 1289.010376,734.983704 
	C1282.243530,730.700623 1274.529663,728.659729 1266.962646,727.192322 
	C1246.318970,723.189026 1225.807129,723.914185 1206.595459,732.166931 
	C1202.527222,731.505066 1202.086182,727.828796 1201.250366,725.891968 
	C1192.206421,704.930847 1174.408325,697.128418 1152.967163,704.909546 
	C1147.175903,707.011230 1141.089600,708.265137 1136.000000,712.000000 
"/>
<path fill="none" opacity="1.000000" stroke="#000000" stroke-linecap="round" stroke-linejoin="round" stroke-width="4.000000"
	d="
M2061.000000,589.000000 
	C2075.706055,593.319763 2091.062988,594.739685 2106.059814,596.487549 
	C2129.163818,599.180298 2152.392578,604.508423 2176.053467,599.239685 
	C2183.040283,597.683838 2190.733643,599.638855 2197.987305,598.879639 
	C2219.295410,596.649475 2240.956543,596.317200 2261.044922,587.098145 
	C2269.642090,583.152710 2276.208740,578.048218 2276.964111,567.997314 
	C2277.912354,555.382935 2266.362549,543.325745 2252.999023,543.050110 
	C2244.958008,542.884338 2236.815430,542.117493 2229.097412,545.704102 
	C2227.946777,536.114807 2227.396973,527.187927 2223.049072,518.973999 
	C2212.197510,498.472748 2187.699463,494.437744 2171.004395,498.020142 
	C2166.975342,498.884705 2162.981934,500.864014 2159.004639,500.780670 
	C2154.064697,500.677155 2153.002930,503.447968 2152.000000,507.000000 
"/>
<path fill="none" opacity="1.000000" stroke="#000000" stroke-linecap="round" stroke-linejoin="round" stroke-width="3.000000"
	d="
M1986.000000,365.000000 
	C1997.098877,319.179199 1979.635864,255.172424 1936.978882,231.037323 
	C1892.327026,205.773438 1837.271851,207.577179 1801.963501,248.968857 
	C1792.044067,260.597290 1787.280762,274.244751 1785.074585,289.011139 
	C1784.782837,290.963867 1784.093018,292.503845 1783.000000,294.000000 
"/>
<path fill="none" opacity="1.000000" stroke="#000000" stroke-linecap="round" stroke-linejoin="round" stroke-width="4.000000"
	d="
M1969.000000,579.000000 
	C1952.187500,594.613220 1931.110474,601.992554 1909.967285,608.899658 
	C1878.191040,619.280396 1845.280762,623.546936 1811.998657,623.845154 
	C1776.472168,624.163513 1741.481323,619.992676 1707.988403,607.029968 
	C1696.428833,602.556152 1687.071045,595.203491 1679.000000,586.000000 
"/>
<path fill="none" opacity="1.000000" stroke="#000000" stroke-linecap="round" stroke-linejoin="round" stroke-width="3.000000"
	d="
M950.000000,561.000000 
	C948.767883,553.925476 950.343689,546.766479 951.351074,540.052673 
	C957.214661,500.971558 925.100647,471.205200 892.015991,464.915771 
	C870.767029,460.876373 850.068420,461.851440 828.938171,466.732391 
	C802.520325,472.834717 784.901062,489.212799 771.025330,511.016113 
	C764.236389,521.683716 759.852234,533.212646 758.857788,545.988953 
	C758.676147,548.322998 758.060852,551.121338 756.000000,553.000000 
"/>
<path fill="none" opacity="1.000000" stroke="#000000" stroke-linecap="round" stroke-linejoin="round" stroke-width="3.000000"
	d="
M1743.000000,304.000000 
	C1734.758789,294.013062 1727.109741,283.705872 1714.057007,278.846954 
	C1695.074219,271.780579 1677.455688,276.614471 1661.138184,285.260712 
	C1633.134644,300.098999 1617.958374,324.603302 1615.289307,356.024567 
	C1614.407593,366.404388 1616.366943,377.172546 1620.990845,387.004333 
	C1622.184326,389.542267 1624.284424,392.006104 1622.000000,395.000000 
"/>
<path fill="none" opacity="1.000000" stroke="#000000" stroke-linecap="round" stroke-linejoin="round" stroke-width="3.000000"
	d="
M2592.000000,561.000000 
	C2583.194336,540.463257 2557.650391,525.830872 2535.990723,527.903748 
	C2495.629150,531.766602 2470.821289,556.791748 2450.992432,588.995361 
	C2441.316895,604.709595 2438.460693,622.809692 2433.000000,640.000000 
"/>
<path fill="none" opacity="1.000000" stroke="#000000" stroke-linecap="round" stroke-linejoin="round" stroke-width="4.000000"
	d="
M2440.000000,651.500000 
	C2428.343994,632.209229 2409.178711,628.307251 2388.995605,627.073181 
	C2365.791016,625.654358 2343.518555,628.831604 2322.957275,640.927307 
	C2296.339600,656.585632 2282.642090,680.578735 2277.148193,710.027649 
	C2276.681641,712.529114 2275.425293,714.597717 2275.000000,717.000000 
"/>
<path fill="none" opacity="1.000000" stroke="#000000" stroke-linecap="round" stroke-linejoin="round" stroke-width="3.000000"
	d="
M2753.000000,499.000000 
	C2752.996826,496.239410 2752.854004,494.105896 2750.116455,491.858215 
	C2732.044434,477.020111 2712.088623,473.291443 2688.943115,476.603149 
	C2659.583740,480.804047 2636.174072,494.578583 2616.112061,515.109497 
	C2606.936035,524.500244 2599.279297,535.248840 2594.944580,547.981140 
	C2594.058350,550.584534 2592.727295,553.149231 2590.000000,554.500000 
"/>
<path fill="none" opacity="1.000000" stroke="#000000" stroke-linecap="round" stroke-linejoin="round" stroke-width="3.000000"
	d="
M1633.000000,406.000000 
	C1615.645264,387.390289 1593.408325,380.768707 1569.013306,382.223267 
	C1537.922363,384.077026 1513.377319,397.990479 1498.025269,426.013824 
	C1494.806519,431.889343 1492.486694,438.020660 1492.936523,445.004089 
	C1493.367188,451.690277 1491.438721,453.297394 1483.919922,451.301819 
	C1456.156128,443.933075 1419.603882,472.936737 1421.036987,497.997894 
	C1421.076172,498.681366 1421.000000,499.333344 1418.997192,500.668518 
	C1412.570923,499.239716 1405.351318,497.178101 1397.987793,496.081757 
	C1374.737183,492.620209 1349.098267,505.927979 1340.137329,526.061096 
	C1339.270996,528.007690 1338.223145,530.508057 1339.000000,533.000000 
"/>
<path fill="none" opacity="1.000000" stroke="#000000" stroke-linecap="round" stroke-linejoin="round" stroke-width="4.000000"
	d="
M2752.000000,825.000000 
	C2739.648682,828.996887 2726.790039,830.438354 2713.995117,830.845032 
	C2676.373291,832.041077 2638.950928,829.708435 2602.005859,821.972412 
	C2594.965576,820.498230 2588.000000,818.666626 2581.000000,816.999939 
"/>
<path fill="none" opacity="1.000000" stroke="#000000" stroke-linecap="round" stroke-linejoin="round" stroke-width="4.000000"
	d="
M663.500000,622.000000 
	C659.596558,603.988220 644.229187,598.673157 629.904541,595.420349 
	C594.628418,587.409973 553.365540,595.393555 531.884155,632.933716 
	C523.282959,647.964844 520.887756,663.373352 525.000000,680.000000 
"/>
<path fill="none" opacity="1.000000" stroke="#000000" stroke-linecap="round" stroke-linejoin="round" stroke-width="3.000000"
	d="
M1139.000000,709.000000 
	C1136.696655,703.604004 1140.840698,699.144470 1141.209473,694.015076 
	C1143.135010,667.239746 1129.971313,649.772644 1108.028320,636.951477 
	C1081.767456,621.607239 1055.475220,624.512085 1029.019775,636.045471 
	C1027.533203,636.693604 1026.180420,639.006409 1025.025757,638.830933 
	C1019.118958,637.933289 1018.166443,643.428284 1015.000000,646.000000 
"/>
<path fill="none" opacity="1.000000" stroke="#000000" stroke-linecap="round" stroke-linejoin="round" stroke-width="3.000000"
	d="
M269.000000,447.000000 
	C245.597656,441.554932 238.084335,444.984924 222.830414,468.258759 
	C208.389313,463.549164 194.924850,466.342590 181.930038,473.879395 
	C178.016785,476.149078 173.637848,477.836945 174.138824,482.986481 
	C174.735657,489.121246 180.518280,490.228363 185.023117,490.825714 
	C199.627945,492.762299 214.383362,492.837708 228.979675,490.850677 
	C236.709488,489.798462 243.547318,489.028107 250.101151,494.886841 
	C259.684082,503.453491 272.193970,504.084595 283.991089,503.715088 
	C299.843658,503.218506 315.744110,501.161346 329.997284,492.995270 
	C334.348114,490.502533 338.484283,490.585724 343.033630,492.934906 
	C357.656036,500.485596 373.020508,502.028015 389.025391,498.103516 
	C390.893463,497.645416 392.598175,497.685272 394.035645,496.030975 
	C403.035461,485.673401 413.697723,491.923370 424.009705,492.897400 
	C444.675049,494.849365 465.444183,496.819153 485.975830,491.899109 
	C492.470734,490.342682 498.989075,488.044739 502.239777,481.550537 
	C499.737457,475.805359 494.251556,479.474915 492.658539,478.331635 
	C485.786774,459.773041 470.275024,469.150635 459.997101,465.007477 
	C462.847015,447.711243 452.750763,435.940460 435.000275,436.045532 
	C430.998444,436.069244 427.000000,436.666656 423.000000,437.000000 
"/>
<path fill="none" opacity="1.000000" stroke="#000000" stroke-linecap="round" stroke-linejoin="round" stroke-width="3.000000"
	d="
M2157.000000,500.000000 
	C2155.995361,492.554657 2161.037109,486.542145 2161.406250,479.019928 
	C2162.222900,462.380127 2155.613037,449.327850 2144.890381,438.104675 
	C2126.387695,418.738220 2103.621094,406.949341 2076.994873,403.035675 
	C2070.750977,402.117920 2064.882080,404.639465 2059.063721,406.232330 
	C2056.251221,407.002228 2053.641357,406.463593 2051.000000,407.000000 
"/>
<path fill="none" opacity="1.000000" stroke="#000000" stroke-linecap="round" stroke-linejoin="round" stroke-width="3.000000"
	d="
M1481.000000,571.000000 
	C1469.166870,572.028809 1457.700439,575.304504 1445.985962,576.897095 
	C1417.118652,580.821594 1388.193848,584.737854 1359.002563,579.984558 
	C1352.528809,578.930481 1346.734741,576.015442 1341.000000,573.000000 
"/>
<path fill="none" opacity="1.000000" stroke="#000000" stroke-linecap="round" stroke-linejoin="round" stroke-width="3.000000"
	d="
M1021.000000,639.000000 
	C1019.349548,630.987610 1023.493958,623.772949 1024.180054,616.015930 
	C1026.577026,588.915222 1011.421631,564.275452 985.978088,558.090088 
	C972.362366,554.780029 959.420105,558.230469 947.000000,564.000000 
"/>
<path fill="none" opacity="1.000000" stroke="#000000" stroke-linecap="round" stroke-linejoin="round" stroke-width="3.000000"
	d="
M761.000000,568.000000 
	C758.447266,555.812500 747.019531,545.231262 734.000000,543.000000 
	C699.057495,537.011597 665.056335,559.572205 656.930664,593.983643 
	C656.114685,597.439148 654.333374,600.666687 653.000061,604.000000 
"/>
<path fill="none" opacity="1.000000" stroke="#000000" stroke-linecap="round" stroke-linejoin="round" stroke-width="3.000000"
	d="
M1135.000000,457.000000 
	C1143.788696,456.080933 1152.262817,459.228638 1161.000244,459.008423 
	C1164.362305,458.923645 1167.954468,459.613647 1170.956177,457.922302 
	C1175.921997,455.124359 1181.258301,452.185577 1179.968872,445.005585 
	C1178.688110,437.873352 1173.472656,435.027649 1166.990356,434.065063 
	C1164.340454,433.671539 1161.583374,434.000000 1157.839600,434.000000 
	C1152.806763,427.825378 1146.075317,422.419098 1136.307007,428.214203 
	C1132.559204,425.936615 1134.202881,421.848633 1132.189453,418.871887 
	C1126.078857,409.838135 1114.785400,408.890381 1107.135864,418.112671 
	C1103.253906,422.792786 1100.254272,426.909576 1094.027222,421.763977 
	C1088.992676,424.771027 1084.334351,427.862000 1082.993530,433.994049 
	C1065.702026,430.177460 1062.695557,431.430115 1059.004028,444.010315 
	C1050.103027,443.855774 1041.257568,443.843445 1034.755981,453.722687 
	C1046.450073,459.623169 1058.539673,459.247162 1070.011353,459.732941 
	C1090.323120,460.593079 1110.736450,460.795013 1131.000000,458.000000 
"/>
<path fill="none" opacity="1.000000" stroke="#000000" stroke-linecap="round" stroke-linejoin="round" stroke-width="3.000000"
	d="
M2731.000000,805.000000 
	C2710.464600,811.327759 2689.651367,816.288513 2668.000977,815.937073 
	C2649.693604,815.639893 2632.264648,810.603943 2615.000000,805.000000 
"/>
<path fill="none" opacity="1.000000" stroke="#000000" stroke-linecap="round" stroke-linejoin="round" stroke-width="3.000000"
	d="
M2255.000000,283.000000 
	C2244.599365,275.408112 2233.288818,274.965607 2222.063965,280.138672 
	C2211.816406,284.861176 2206.611328,293.275635 2208.101074,304.930664 
	C2199.612305,305.546478 2191.134521,303.827850 2182.902832,307.798523 
	C2178.459961,309.941589 2174.288330,312.001221 2174.218994,317.003021 
	C2174.158936,321.326324 2178.264160,323.003632 2181.889404,325.183838 
	C2193.715576,332.296295 2206.572510,330.073059 2218.992188,329.724121 
	C2228.770264,329.449371 2238.531738,326.958405 2247.913574,323.924072 
	C2271.149658,344.309998 2311.167236,348.644714 2336.963379,330.946594 
	C2341.986084,327.500641 2346.357422,328.021698 2352.074463,329.754639 
	C2369.871338,335.149475 2387.903320,336.331665 2406.060791,330.179535 
	C2411.292725,328.406891 2415.186523,326.264984 2417.420898,321.027222 
	C2414.349121,313.231049 2408.074463,311.904572 2401.000000,312.000000 
"/>
<path fill="none" opacity="1.000000" stroke="#000000" stroke-linecap="round" stroke-linejoin="round" stroke-width="4.000000"
	d="
M1964.000000,588.000000 
	C1974.209961,597.360962 1987.088379,600.918701 2000.021484,603.906799 
	C2022.104858,609.009094 2044.040283,609.844604 2064.998779,598.997437 
	C2067.798096,597.548584 2070.928711,596.472290 2072.000000,593.000000 
"/>
<path fill="none" opacity="1.000000" stroke="#000000" stroke-linecap="round" stroke-linejoin="round" stroke-width="3.000000"
	d="
M2527.000000,565.000000 
	C2518.411621,560.475098 2507.821045,560.465698 2498.042236,566.073547 
	C2474.942627,579.320190 2463.260254,600.013184 2459.945801,625.993042 
	C2459.354492,630.627197 2461.228271,634.682861 2462.000000,639.000000 
"/>
<path fill="none" opacity="1.000000" stroke="#000000" stroke-linecap="round" stroke-linejoin="round" stroke-width="3.000000"
	d="
M2044.000000,414.000000 
	C2053.855713,402.531494 2056.397217,379.656738 2049.000000,369.000061 
	C2038.404175,353.735474 2016.696167,346.158356 2000.015747,352.044495 
	C1996.715454,353.209106 1993.850586,355.724182 1990.000000,355.000000 
"/>
<path fill="none" opacity="1.000000" stroke="#000000" stroke-linecap="round" stroke-linejoin="round" stroke-width="3.000000"
	d="
M1927.000000,575.000000 
	C1906.353149,590.855347 1881.972046,596.367615 1856.982666,599.876831 
	C1850.260742,600.820801 1843.300781,600.438904 1837.000000,597.000000 
"/>
<path fill="none" opacity="1.000000" stroke="#000000" stroke-linecap="round" stroke-linejoin="round" stroke-width="3.000000"
	d="
M437.000000,759.000000 
	C434.062592,765.194214 434.393433,767.632507 441.060638,771.905396 
	C453.813202,780.078247 467.623657,783.057251 483.030823,781.264954 
	C496.685516,779.676453 509.764160,776.154114 523.000000,773.000000 
"/>
<path fill="none" opacity="1.000000" stroke="#000000" stroke-linecap="round" stroke-linejoin="round" stroke-width="3.000000"
	d="
M603.000000,769.000000 
	C609.254028,788.515808 625.266113,796.125183 643.037415,800.859558 
	C656.850403,804.539551 671.000000,805.931458 685.000000,801.000000 
"/>
<path fill="none" opacity="1.000000" stroke="#000000" stroke-linecap="round" stroke-linejoin="round" stroke-width="3.000000"
	d="
M1675.000000,313.000000 
	C1648.607422,319.056396 1631.372681,361.661163 1645.000000,389.000000 
"/>
<path fill="none" opacity="1.000000" stroke="#000000" stroke-linecap="round" stroke-linejoin="round" stroke-width="2.000000"
	d="
M837.000000,489.000000 
	C806.331299,486.230927 785.027222,513.119324 780.108337,539.020569 
	C779.631104,541.533325 780.666687,544.333313 781.000000,547.000000 
"/>
<path fill="none" opacity="1.000000" stroke="#000000" stroke-linecap="round" stroke-linejoin="round" stroke-width="3.000000"
	d="
M1957.000000,321.000000 
	C1955.636841,304.889648 1951.575562,290.138977 1941.288208,276.778076 
	C1932.713745,265.641693 1922.638672,259.716522 1909.000000,259.000000 
"/>
<path fill="none" opacity="1.000000" stroke="#000000" stroke-linecap="round" stroke-linejoin="round" stroke-width="3.000000"
	d="
M2683.000000,515.000000 
	C2671.249023,507.429718 2658.364258,507.952301 2646.114990,518.138306 
	C2634.014160,528.200562 2625.112793,540.724609 2623.000000,557.000000 
"/>
<path fill="none" opacity="1.000000" stroke="#000000" stroke-linecap="round" stroke-linejoin="round" stroke-width="3.000000"
	d="
M355.000000,426.000000 
	C353.051086,414.528992 348.558807,404.490234 335.965485,402.188812 
	C323.061493,399.830627 310.027893,398.641571 298.835266,408.818817 
	C295.502930,411.848846 291.360382,414.139130 286.129700,415.498901 
	C273.865936,418.687042 266.891602,440.940338 273.000000,453.000000 
"/>
<path fill="none" opacity="1.000000" stroke="#000000" stroke-linecap="round" stroke-linejoin="round" stroke-width="3.000000"
	d="
M528.000000,682.000000 
	C514.793152,678.201477 502.091431,679.778015 490.018890,686.036438 
	C474.242096,694.215210 468.688690,705.255615 471.000000,723.000000 
"/>
<path fill="none" opacity="1.000000" stroke="#000000" stroke-linecap="round" stroke-linejoin="round" stroke-width="3.000000"
	d="
M420.000000,443.000000 
	C422.498413,433.703156 417.580383,425.748993 404.993103,419.012909 
	C392.357849,412.251160 379.461487,413.684296 367.099243,419.221558 
	C362.030060,421.492126 356.951355,424.665253 353.000000,429.000000 
"/>
<path fill="none" opacity="1.000000" stroke="#000000" stroke-linecap="round" stroke-linejoin="round" stroke-width="3.000000"
	d="
M2133.000000,483.000000 
	C2130.944336,453.014282 2112.341553,436.372803 2085.000000,437.000000 
"/>
<path fill="none" opacity="1.000000" stroke="#000000" stroke-linecap="round" stroke-linejoin="round" stroke-width="3.000000"
	d="
M2329.000000,279.000000 
	C2328.581055,262.600220 2319.096436,254.651535 2304.068115,250.738785 
	C2299.050781,249.432526 2294.904541,250.595047 2291.083740,252.199249 
	C2281.600098,256.180664 2271.059570,258.871796 2264.133301,267.112000 
	C2259.496094,272.628632 2256.484863,279.336395 2257.000000,287.000000 
"/>
<path fill="none" opacity="1.000000" stroke="#000000" stroke-linecap="round" stroke-linejoin="round" stroke-width="3.000000"
	d="
M1107.000000,697.000000 
	C1110.141602,677.922058 1104.013550,663.905396 1090.054932,656.890747 
	C1085.710083,654.707336 1081.405640,655.196838 1077.000000,655.000000 
"/>
<path fill="none" opacity="1.000000" stroke="#000000" stroke-linecap="round" stroke-linejoin="round" stroke-width="3.000000"
	d="
M2409.000000,312.000000 
	C2413.804199,306.089600 2412.411377,302.126678 2406.116699,297.829041 
	C2396.785156,291.458130 2387.365723,289.907959 2377.027588,294.068695 
	C2374.661865,295.020844 2372.365967,294.894806 2370.000488,295.002686 
	C2365.466553,278.347961 2356.683350,269.233612 2331.000000,277.000000 
"/>
<path fill="none" opacity="1.000000" stroke="#000000" stroke-linecap="round" stroke-linejoin="round" stroke-width="3.000000"
	d="
M2241.000000,736.000000 
	C2224.367676,737.402710 2210.840088,748.816589 2209.000000,763.000000 
"/>
<path fill="none" opacity="1.000000" stroke="#000000" stroke-linecap="round" stroke-linejoin="round" stroke-width="3.000000"
	d="
M1786.000000,305.000000 
	C1785.030396,295.630157 1774.961792,287.000000 1765.000000,287.000000 
	C1754.249023,287.000000 1742.946167,299.917603 1744.000000,311.000000 
"/>
<path fill="none" opacity="1.000000" stroke="#000000" stroke-linecap="round" stroke-linejoin="round" stroke-width="3.000000"
	d="
M1468.000000,474.000000 
	C1455.650024,479.860962 1446.316162,488.010010 1446.000000,503.000000 
"/>
<path fill="none" opacity="1.000000" stroke="#000000" stroke-linecap="round" stroke-linejoin="round" stroke-width="2.000000"
	d="
M288.000000,417.000000 
	C287.666687,421.000000 287.333344,425.000000 287.000000,429.000000 
"/>
<path fill="none" opacity="1.000000" stroke="#000000" stroke-linecap="round" stroke-linejoin="round" stroke-width="3.000000"
	d="
M1679.000000,579.000000 
	C1680.427368,587.094055 1672.605957,586.439209 1668.847900,588.752930 
	C1658.135254,595.348389 1646.693237,597.843872 1633.900757,593.278198 
	C1627.192871,590.884155 1622.990479,587.284485 1621.108765,580.967590 
	C1619.764526,576.454834 1617.147827,575.306213 1612.999756,575.998596 
	C1599.000366,578.335571 1585.006592,580.707520 1570.997803,582.986755 
	C1560.342163,584.720337 1549.697632,586.575378 1538.993286,587.947449 
	C1519.350220,590.465149 1499.707275,593.114502 1479.991455,594.906067 
	C1439.744629,598.563171 1399.546021,602.834229 1358.972168,598.246216 
	C1343.071655,596.448242 1327.315674,594.553467 1312.030029,589.901123 
	C1304.976196,587.754272 1298.280273,584.597595 1292.963257,579.035156 
	C1286.348511,572.115173 1286.008423,561.538208 1291.955444,553.964966 
	C1303.754028,538.939880 1319.980469,534.488403 1338.000000,534.000000 
"/>
</svg>